<svg width="28" height="29" fill="none" xmlns="http://www.w3.org/2000/svg"><path d="M24.851 4.263a2.399 2.399 0 00-.778.184c-.237.095-1.6.678-3.616 1.539-2.014.861-4.633 1.983-7.23 3.095L2.934 13.495l.038-.015s-.308.103-.62.32c-.157.11-.325.25-.462.455a1.201 1.201 0 00-.2.801c.133 1.078 1.25 1.384 1.25 1.384l.004.002 4.986 1.706c.127.425 1.512 5.047 1.816 6.026.169.541.326.853.49 1.066.083.107.169.19.264.25a.723.723 0 00.117.058h.002l.014.004-.013-.003c.01.003.018.01.027.013.018.006.03.006.052.01.57.2 1.043-.17 1.043-.17l.02-.015 3.063-2.84 4.97 3.875.062.028c.87.386 1.657.17 2.092-.184.436-.354.607-.811.607-.811l.019-.048 3.652-19.035c.093-.426.107-.794.018-1.127a1.309 1.309 0 00-.57-.782 1.45 1.45 0 00-.823-.2zm.03 1.139a.513.513 0 01.218.023c.026.015.038.013.063.107.024.094.038.291-.03.6l-.002.007-3.631 18.924c-.009.02-.084.194-.257.335-.177.143-.373.255-.893.037l-5.435-4.238-.153-.12-.003.003-1.625-1.22 9.134-10.746a.56.56 0 00-.738-.829L8.312 17.096l-4.992-1.71s-.496-.275-.52-.467c-.001-.011-.007-.001.019-.04a.734.734 0 01.171-.16c.163-.113.348-.181.348-.181l.019-.007.018-.007s5.103-2.19 10.295-4.413c2.596-1.113 5.214-2.234 7.228-3.095 2.014-.86 3.469-1.48 3.592-1.53.14-.056.28-.079.39-.084zm-6.058 6.033l-6.926 8.15-.004.003a.597.597 0 00-.06.087.559.559 0 00-.074.216v.004l-.902 4.058c-.015-.044-.026-.06-.042-.112-.287-.922-1.593-5.281-1.774-5.884l9.782-6.522zM12.68 20.92l1.244.934-1.828 1.695.584-2.629z" fill="#FF0"/></svg>