<svg width="28" height="29" fill="none" xmlns="http://www.w3.org/2000/svg"><path d="M3.17 7.303c-1.307 0-2.302 1.285-1.942 2.55.939 3.295 2.33 6.521 4.408 9.058 2.078 2.537 4.887 4.376 8.48 4.74 1.196.122 2.227-.853 2.227-2.035v-2.36c0-.148.101-.253.216-.256l.049-.001c.412 0 1.26.517 2.005 1.32a14.264 14.264 0 011.72 2.35 2.006 2.006 0 001.738.999h2.842c1.416 0 2.364-1.598 1.67-2.837-1.087-1.946-3.257-3.87-4.342-4.83 1.988-2.183 3.306-4.563 3.89-6.14.441-1.193-.468-2.535-1.75-2.535h-2.029c-.882 0-1.704.43-2.04 1.118-1.58 3.236-2.987 4.425-3.979 5.28v-4.39a2.017 2.017 0 00-2-2l-3.554-.006C9.647 7.326 8.946 8.724 9.624 9.63l.686.918v.003c.118.155.18.341.18.533v.001l.014 3.662c-1.413-1.49-2.948-4.648-3.412-6.057a2.021 2.021 0 00-1.908-1.382h-.001l-2.011-.005H3.17zm0 1.75l2.01.005a.25.25 0 01.25.178c.575 1.75 2.087 5.083 4.004 6.95a1.693 1.693 0 001.794.353 1.677 1.677 0 001.028-1.526l-.015-3.929a2.64 2.64 0 00-.531-1.585l-.001-.002-.313-.418 2.933.004c.153 0 .254.1.254.251v4.435c0 1.42 1.789 2.237 2.865 1.308.986-.851 2.731-2.371 4.436-5.865.04-.08.005-.136.468-.136h2.03c.118 0 .152.057.108.177-.497 1.34-1.763 3.679-3.64 5.701-.58.624-.556 1.654.099 2.233 1.025.907 3.264 2.989 4.107 4.497.077.138.02.234-.141.234H22.07a.249.249 0 01-.221-.122 15.493 15.493 0 00-1.953-2.666c-.879-.948-1.925-1.881-3.29-1.881l-.094.001h-.003c-1.086.03-1.917.952-1.917 2.005v2.36c0 .182-.14.312-.3.296-3.106-.315-5.446-1.84-7.303-4.108-1.857-2.268-3.183-5.287-4.08-8.43-.05-.176.059-.32.26-.32z" fill="#FF0"/></svg>